<svg xmlns="http://www.w3.org/2000/svg" xmlns:xlink="http://www.w3.org/1999/xlink" width="1080" zoomAndPan="magnify" viewBox="0 0 810 809.999993" height="1080" preserveAspectRatio="xMidYMid meet" version="1.0"><defs><g/><clipPath id="c34aa6d07e"><path d="M 40.5 40.5 L 769.5 40.5 L 769.5 769.5 L 40.5 769.5 Z M 40.5 40.5 " clip-rule="nonzero"/></clipPath><clipPath id="8eba47c5bf"><path d="M 769.5 405 C 769.5 410.964844 769.355469 416.925781 769.0625 422.886719 C 768.769531 428.84375 768.328125 434.789062 767.746094 440.726562 C 767.160156 446.664062 766.429688 452.582031 765.554688 458.484375 C 764.679688 464.382812 763.660156 470.257812 762.496094 476.109375 C 761.332031 481.960938 760.027344 487.78125 758.578125 493.566406 C 757.125 499.351562 755.535156 505.101562 753.804688 510.808594 C 752.074219 516.515625 750.203125 522.179688 748.191406 527.796875 C 746.183594 533.414062 744.035156 538.976562 741.753906 544.488281 C 739.472656 550 737.054688 555.449219 734.503906 560.84375 C 731.953125 566.234375 729.273438 571.5625 726.460938 576.824219 C 723.648438 582.085938 720.707031 587.273438 717.640625 592.390625 C 714.574219 597.507812 711.382812 602.546875 708.070312 607.503906 C 704.757812 612.464844 701.324219 617.339844 697.769531 622.132812 C 694.214844 626.921875 690.546875 631.625 686.761719 636.234375 C 682.976562 640.847656 679.082031 645.363281 675.078125 649.78125 C 671.070312 654.203125 666.957031 658.523438 662.742188 662.742188 C 658.523438 666.957031 654.203125 671.070312 649.78125 675.078125 C 645.363281 679.082031 640.847656 682.976562 636.234375 686.761719 C 631.625 690.546875 626.921875 694.214844 622.132812 697.769531 C 617.339844 701.324219 612.464844 704.757812 607.503906 708.070312 C 602.546875 711.382812 597.507812 714.574219 592.390625 717.640625 C 587.273438 720.707031 582.085938 723.648438 576.824219 726.460938 C 571.5625 729.273438 566.234375 731.953125 560.84375 734.503906 C 555.449219 737.054688 550 739.472656 544.488281 741.753906 C 538.976562 744.035156 533.414062 746.183594 527.796875 748.191406 C 522.179688 750.203125 516.515625 752.074219 510.808594 753.804688 C 505.101562 755.535156 499.351562 757.125 493.566406 758.578125 C 487.78125 760.027344 481.960938 761.332031 476.109375 762.496094 C 470.257812 763.660156 464.382812 764.679688 458.484375 765.554688 C 452.582031 766.429688 446.664062 767.160156 440.726562 767.746094 C 434.789062 768.328125 428.84375 768.769531 422.886719 769.0625 C 416.925781 769.355469 410.964844 769.5 405 769.5 C 399.035156 769.5 393.074219 769.355469 387.113281 769.0625 C 381.15625 768.769531 375.210938 768.328125 369.273438 767.746094 C 363.335938 767.160156 357.417969 766.429688 351.515625 765.554688 C 345.617188 764.679688 339.738281 763.660156 333.890625 762.496094 C 328.039062 761.332031 322.21875 760.027344 316.433594 758.578125 C 310.648438 757.125 304.898438 755.535156 299.191406 753.804688 C 293.484375 752.074219 287.820312 750.203125 282.203125 748.191406 C 276.585938 746.183594 271.023438 744.035156 265.511719 741.753906 C 260 739.472656 254.546875 737.054688 249.15625 734.503906 C 243.761719 731.953125 238.4375 729.273438 233.175781 726.460938 C 227.914062 723.648438 222.726562 720.707031 217.609375 717.640625 C 212.492188 714.574219 207.453125 711.382812 202.496094 708.070312 C 197.535156 704.757812 192.660156 701.324219 187.867188 697.769531 C 183.078125 694.214844 178.375 690.546875 173.761719 686.761719 C 169.152344 682.976562 164.636719 679.082031 160.214844 675.078125 C 155.796875 671.070312 151.476562 666.957031 147.257812 662.742188 C 143.042969 658.523438 138.929688 654.203125 134.921875 649.78125 C 130.917969 645.363281 127.023438 640.847656 123.238281 636.234375 C 119.453125 631.625 115.785156 626.921875 112.230469 622.132812 C 108.675781 617.339844 105.242188 612.464844 101.929688 607.503906 C 98.613281 602.546875 95.425781 597.507812 92.359375 592.390625 C 89.292969 587.273438 86.351562 582.085938 83.539062 576.824219 C 80.726562 571.5625 78.046875 566.234375 75.496094 560.84375 C 72.945312 555.449219 70.527344 550 68.246094 544.488281 C 65.964844 538.976562 63.816406 533.414062 61.808594 527.796875 C 59.796875 522.179688 57.925781 516.515625 56.195312 510.808594 C 54.464844 505.101562 52.875 499.351562 51.421875 493.566406 C 49.972656 487.78125 48.667969 481.960938 47.503906 476.109375 C 46.339844 470.257812 45.320312 464.382812 44.445312 458.484375 C 43.570312 452.582031 42.839844 446.664062 42.253906 440.726562 C 41.671875 434.789062 41.230469 428.84375 40.9375 422.886719 C 40.644531 416.925781 40.5 410.964844 40.5 405 C 40.5 399.035156 40.644531 393.074219 40.9375 387.113281 C 41.230469 381.15625 41.671875 375.210938 42.253906 369.273438 C 42.839844 363.335938 43.570312 357.417969 44.445312 351.515625 C 45.320312 345.617188 46.339844 339.738281 47.503906 333.890625 C 48.667969 328.039062 49.972656 322.21875 51.421875 316.433594 C 52.875 310.648438 54.464844 304.898438 56.195312 299.191406 C 57.925781 293.484375 59.796875 287.820312 61.808594 282.203125 C 63.816406 276.585938 65.964844 271.023438 68.246094 265.511719 C 70.527344 260 72.945312 254.546875 75.496094 249.15625 C 78.046875 243.761719 80.726562 238.4375 83.539062 233.175781 C 86.351562 227.914062 89.292969 222.726562 92.359375 217.609375 C 95.425781 212.492188 98.613281 207.453125 101.929688 202.496094 C 105.242188 197.535156 108.675781 192.660156 112.230469 187.867188 C 115.785156 183.078125 119.453125 178.375 123.238281 173.761719 C 127.023438 169.152344 130.917969 164.636719 134.921875 160.214844 C 138.929688 155.796875 143.042969 151.476562 147.257812 147.257812 C 151.476562 143.042969 155.796875 138.929688 160.214844 134.921875 C 164.636719 130.917969 169.152344 127.023438 173.761719 123.238281 C 178.375 119.453125 183.078125 115.785156 187.867188 112.230469 C 192.660156 108.675781 197.535156 105.242188 202.496094 101.929688 C 207.453125 98.613281 212.492188 95.425781 217.609375 92.359375 C 222.726562 89.292969 227.914062 86.351562 233.175781 83.539062 C 238.4375 80.726562 243.761719 78.046875 249.15625 75.496094 C 254.546875 72.945312 260 70.527344 265.511719 68.246094 C 271.023438 65.964844 276.585938 63.816406 282.203125 61.808594 C 287.820312 59.796875 293.484375 57.925781 299.191406 56.195312 C 304.898438 54.464844 310.648438 52.875 316.433594 51.421875 C 322.21875 49.972656 328.039062 48.667969 333.890625 47.503906 C 339.742188 46.339844 345.617188 45.320312 351.515625 44.445312 C 357.417969 43.570312 363.335938 42.839844 369.273438 42.253906 C 375.210938 41.671875 381.15625 41.230469 387.113281 40.9375 C 393.074219 40.644531 399.035156 40.5 405 40.5 C 410.964844 40.5 416.925781 40.644531 422.886719 40.9375 C 428.84375 41.230469 434.789062 41.671875 440.726562 42.253906 C 446.664062 42.839844 452.582031 43.570312 458.484375 44.445312 C 464.382812 45.320312 470.257812 46.339844 476.109375 47.503906 C 481.960938 48.667969 487.78125 49.972656 493.566406 51.421875 C 499.351562 52.875 505.101562 54.464844 510.808594 56.195312 C 516.515625 57.925781 522.179688 59.796875 527.796875 61.808594 C 533.414062 63.816406 538.976562 65.964844 544.488281 68.246094 C 550 70.527344 555.449219 72.945312 560.84375 75.496094 C 566.234375 78.046875 571.5625 80.726562 576.824219 83.539062 C 582.085938 86.351562 587.273438 89.292969 592.390625 92.359375 C 597.507812 95.425781 602.546875 98.613281 607.503906 101.929688 C 612.464844 105.242188 617.339844 108.675781 622.132812 112.230469 C 626.921875 115.785156 631.625 119.453125 636.234375 123.238281 C 640.847656 127.023438 645.363281 130.917969 649.78125 134.921875 C 654.203125 138.929688 658.523438 143.042969 662.742188 147.257812 C 666.957031 151.476562 671.070312 155.796875 675.078125 160.214844 C 679.082031 164.636719 682.976562 169.152344 686.761719 173.761719 C 690.546875 178.375 694.214844 183.078125 697.769531 187.867188 C 701.324219 192.660156 704.757812 197.535156 708.070312 202.496094 C 711.382812 207.453125 714.574219 212.492188 717.640625 217.609375 C 720.707031 222.726562 723.648438 227.914062 726.460938 233.175781 C 729.273438 238.4375 731.953125 243.761719 734.503906 249.15625 C 737.054688 254.546875 739.472656 260 741.753906 265.511719 C 744.035156 271.023438 746.183594 276.585938 748.191406 282.203125 C 750.203125 287.820312 752.074219 293.484375 753.804688 299.191406 C 755.535156 304.898438 757.125 310.648438 758.578125 316.433594 C 760.027344 322.21875 761.332031 328.039062 762.496094 333.890625 C 763.660156 339.742188 764.679688 345.617188 765.554688 351.515625 C 766.429688 357.417969 767.160156 363.335938 767.746094 369.273438 C 768.328125 375.210938 768.769531 381.15625 769.0625 387.113281 C 769.355469 393.074219 769.5 399.035156 769.5 405 Z M 769.5 405 " clip-rule="nonzero"/></clipPath><linearGradient x1="245.382098" gradientTransform="matrix(2.52533, 1.458, 1.458, -2.52533, -563.358822, 684.843883)" y1="425.28454" x2="233.899229" gradientUnits="userSpaceOnUse" y2="73.020299" id="798388a49d"><stop stop-opacity="1" stop-color="rgb(4.699707%, 75.299072%, 87.5%)" offset="0"/><stop stop-opacity="1" stop-color="rgb(4.699707%, 75.299072%, 87.5%)" offset="0.0315683"/><stop stop-opacity="1" stop-color="rgb(4.699707%, 75.299072%, 87.5%)" offset="0.125"/><stop stop-opacity="1" stop-color="rgb(4.699707%, 75.299072%, 87.5%)" offset="0.140625"/><stop stop-opacity="1" stop-color="rgb(4.6875%, 75.10376%, 87.272644%)" offset="0.144531"/><stop stop-opacity="1" stop-color="rgb(4.675293%, 74.908447%, 87.045288%)" offset="0.148438"/><stop stop-opacity="1" stop-color="rgb(4.64325%, 74.412537%, 86.468506%)" offset="0.152344"/><stop stop-opacity="1" stop-color="rgb(4.612732%, 73.918152%, 85.89325%)" offset="0.15625"/><stop stop-opacity="1" stop-color="rgb(4.582214%, 73.422241%, 85.317993%)" offset="0.160156"/><stop stop-opacity="1" stop-color="rgb(4.551697%, 72.927856%, 84.742737%)" offset="0.164062"/><stop stop-opacity="1" stop-color="rgb(4.519653%, 72.431946%, 84.16748%)" offset="0.167969"/><stop stop-opacity="1" stop-color="rgb(4.489136%, 71.936035%, 83.592224%)" offset="0.171875"/><stop stop-opacity="1" stop-color="rgb(4.458618%, 71.440125%, 83.015442%)" offset="0.175781"/><stop stop-opacity="1" stop-color="rgb(4.428101%, 70.94574%, 82.440186%)" offset="0.179688"/><stop stop-opacity="1" stop-color="rgb(4.396057%, 70.449829%, 81.864929%)" offset="0.183594"/><stop stop-opacity="1" stop-color="rgb(4.36554%, 69.955444%, 81.289673%)" offset="0.1875"/><stop stop-opacity="1" stop-color="rgb(4.335022%, 69.459534%, 80.712891%)" offset="0.191406"/><stop stop-opacity="1" stop-color="rgb(4.304504%, 68.965149%, 80.137634%)" offset="0.195312"/><stop stop-opacity="1" stop-color="rgb(4.272461%, 68.469238%, 79.562378%)" offset="0.199219"/><stop stop-opacity="1" stop-color="rgb(4.241943%, 67.973328%, 78.987122%)" offset="0.203125"/><stop stop-opacity="1" stop-color="rgb(4.211426%, 67.477417%, 78.411865%)" offset="0.207031"/><stop stop-opacity="1" stop-color="rgb(4.180908%, 66.983032%, 77.836609%)" offset="0.210938"/><stop stop-opacity="1" stop-color="rgb(4.148865%, 66.487122%, 77.259827%)" offset="0.214844"/><stop stop-opacity="1" stop-color="rgb(4.118347%, 65.992737%, 76.68457%)" offset="0.21875"/><stop stop-opacity="1" stop-color="rgb(4.086304%, 65.496826%, 76.109314%)" offset="0.222656"/><stop stop-opacity="1" stop-color="rgb(4.055786%, 65.002441%, 75.534058%)" offset="0.226563"/><stop stop-opacity="1" stop-color="rgb(4.025269%, 64.506531%, 74.957275%)" offset="0.230469"/><stop stop-opacity="1" stop-color="rgb(3.994751%, 64.012146%, 74.382019%)" offset="0.234375"/><stop stop-opacity="1" stop-color="rgb(3.962708%, 63.516235%, 73.806763%)" offset="0.238281"/><stop stop-opacity="1" stop-color="rgb(3.93219%, 63.020325%, 73.231506%)" offset="0.242188"/><stop stop-opacity="1" stop-color="rgb(3.901672%, 62.524414%, 72.65625%)" offset="0.246094"/><stop stop-opacity="1" stop-color="rgb(3.871155%, 62.030029%, 72.080994%)" offset="0.25"/><stop stop-opacity="1" stop-color="rgb(3.839111%, 61.534119%, 71.504211%)" offset="0.253906"/><stop stop-opacity="1" stop-color="rgb(3.808594%, 61.039734%, 70.928955%)" offset="0.257812"/><stop stop-opacity="1" stop-color="rgb(3.778076%, 60.543823%, 70.353699%)" offset="0.261719"/><stop stop-opacity="1" stop-color="rgb(3.747559%, 60.049438%, 69.778442%)" offset="0.265625"/><stop stop-opacity="1" stop-color="rgb(3.715515%, 59.553528%, 69.20166%)" offset="0.269531"/><stop stop-opacity="1" stop-color="rgb(3.684998%, 59.057617%, 68.626404%)" offset="0.273438"/><stop stop-opacity="1" stop-color="rgb(3.65448%, 58.561707%, 68.051147%)" offset="0.277344"/><stop stop-opacity="1" stop-color="rgb(3.623962%, 58.067322%, 67.475891%)" offset="0.28125"/><stop stop-opacity="1" stop-color="rgb(3.591919%, 57.571411%, 66.899109%)" offset="0.285156"/><stop stop-opacity="1" stop-color="rgb(3.561401%, 57.077026%, 66.323853%)" offset="0.289062"/><stop stop-opacity="1" stop-color="rgb(3.530884%, 56.581116%, 65.748596%)" offset="0.292969"/><stop stop-opacity="1" stop-color="rgb(3.500366%, 56.086731%, 65.17334%)" offset="0.296875"/><stop stop-opacity="1" stop-color="rgb(3.468323%, 55.59082%, 64.598083%)" offset="0.300781"/><stop stop-opacity="1" stop-color="rgb(3.437805%, 55.096436%, 64.022827%)" offset="0.304688"/><stop stop-opacity="1" stop-color="rgb(3.407288%, 54.600525%, 63.446045%)" offset="0.308594"/><stop stop-opacity="1" stop-color="rgb(3.37677%, 54.104614%, 62.870789%)" offset="0.3125"/><stop stop-opacity="1" stop-color="rgb(3.344727%, 53.608704%, 62.295532%)" offset="0.316406"/><stop stop-opacity="1" stop-color="rgb(3.314209%, 53.114319%, 61.720276%)" offset="0.320312"/><stop stop-opacity="1" stop-color="rgb(3.283691%, 52.618408%, 61.143494%)" offset="0.324219"/><stop stop-opacity="1" stop-color="rgb(3.253174%, 52.124023%, 60.568237%)" offset="0.328125"/><stop stop-opacity="1" stop-color="rgb(3.22113%, 51.628113%, 59.992981%)" offset="0.332031"/><stop stop-opacity="1" stop-color="rgb(3.190613%, 51.133728%, 59.417725%)" offset="0.335938"/><stop stop-opacity="1" stop-color="rgb(3.160095%, 50.637817%, 58.842468%)" offset="0.339844"/><stop stop-opacity="1" stop-color="rgb(3.129578%, 50.141907%, 58.267212%)" offset="0.34375"/><stop stop-opacity="1" stop-color="rgb(3.097534%, 49.645996%, 57.69043%)" offset="0.347656"/><stop stop-opacity="1" stop-color="rgb(3.067017%, 49.151611%, 57.115173%)" offset="0.351562"/><stop stop-opacity="1" stop-color="rgb(3.036499%, 48.655701%, 56.539917%)" offset="0.355469"/><stop stop-opacity="1" stop-color="rgb(3.005981%, 48.161316%, 55.964661%)" offset="0.359375"/><stop stop-opacity="1" stop-color="rgb(2.973938%, 47.665405%, 55.387878%)" offset="0.363281"/><stop stop-opacity="1" stop-color="rgb(2.94342%, 47.171021%, 54.812622%)" offset="0.367188"/><stop stop-opacity="1" stop-color="rgb(2.912903%, 46.67511%, 54.237366%)" offset="0.371094"/><stop stop-opacity="1" stop-color="rgb(2.882385%, 46.179199%, 53.662109%)" offset="0.375"/><stop stop-opacity="1" stop-color="rgb(2.850342%, 45.683289%, 53.086853%)" offset="0.378906"/><stop stop-opacity="1" stop-color="rgb(2.819824%, 45.188904%, 52.511597%)" offset="0.382813"/><stop stop-opacity="1" stop-color="rgb(2.789307%, 44.692993%, 51.934814%)" offset="0.386719"/><stop stop-opacity="1" stop-color="rgb(2.758789%, 44.198608%, 51.359558%)" offset="0.390625"/><stop stop-opacity="1" stop-color="rgb(2.726746%, 43.702698%, 50.784302%)" offset="0.394531"/><stop stop-opacity="1" stop-color="rgb(2.696228%, 43.208313%, 50.209045%)" offset="0.398438"/><stop stop-opacity="1" stop-color="rgb(2.664185%, 42.712402%, 49.632263%)" offset="0.402344"/><stop stop-opacity="1" stop-color="rgb(2.633667%, 42.218018%, 49.057007%)" offset="0.40625"/><stop stop-opacity="1" stop-color="rgb(2.603149%, 41.722107%, 48.48175%)" offset="0.410156"/><stop stop-opacity="1" stop-color="rgb(2.572632%, 41.226196%, 47.906494%)" offset="0.414063"/><stop stop-opacity="1" stop-color="rgb(2.540588%, 40.730286%, 47.331238%)" offset="0.417969"/><stop stop-opacity="1" stop-color="rgb(2.510071%, 40.235901%, 46.755981%)" offset="0.421875"/><stop stop-opacity="1" stop-color="rgb(2.479553%, 39.73999%, 46.179199%)" offset="0.425781"/><stop stop-opacity="1" stop-color="rgb(2.449036%, 39.245605%, 45.603943%)" offset="0.429688"/><stop stop-opacity="1" stop-color="rgb(2.416992%, 38.749695%, 45.028687%)" offset="0.433594"/><stop stop-opacity="1" stop-color="rgb(2.386475%, 38.25531%, 44.45343%)" offset="0.4375"/><stop stop-opacity="1" stop-color="rgb(2.355957%, 37.759399%, 43.876648%)" offset="0.441406"/><stop stop-opacity="1" stop-color="rgb(2.325439%, 37.263489%, 43.301392%)" offset="0.445313"/><stop stop-opacity="1" stop-color="rgb(2.293396%, 36.767578%, 42.726135%)" offset="0.449219"/><stop stop-opacity="1" stop-color="rgb(2.262878%, 36.273193%, 42.150879%)" offset="0.453125"/><stop stop-opacity="1" stop-color="rgb(2.232361%, 35.777283%, 41.574097%)" offset="0.457031"/><stop stop-opacity="1" stop-color="rgb(2.201843%, 35.282898%, 40.99884%)" offset="0.460938"/><stop stop-opacity="1" stop-color="rgb(2.1698%, 34.786987%, 40.423584%)" offset="0.464844"/><stop stop-opacity="1" stop-color="rgb(2.139282%, 34.292603%, 39.848328%)" offset="0.46875"/><stop stop-opacity="1" stop-color="rgb(2.108765%, 33.796692%, 39.273071%)" offset="0.472656"/><stop stop-opacity="1" stop-color="rgb(2.078247%, 33.302307%, 38.697815%)" offset="0.476562"/><stop stop-opacity="1" stop-color="rgb(2.046204%, 32.806396%, 38.121033%)" offset="0.480469"/><stop stop-opacity="1" stop-color="rgb(2.015686%, 32.310486%, 37.545776%)" offset="0.484375"/><stop stop-opacity="1" stop-color="rgb(1.985168%, 31.814575%, 36.97052%)" offset="0.488281"/><stop stop-opacity="1" stop-color="rgb(1.954651%, 31.32019%, 36.395264%)" offset="0.492188"/><stop stop-opacity="1" stop-color="rgb(1.922607%, 30.82428%, 35.818481%)" offset="0.496094"/><stop stop-opacity="1" stop-color="rgb(1.89209%, 30.329895%, 35.243225%)" offset="0.5"/><stop stop-opacity="1" stop-color="rgb(1.861572%, 29.833984%, 34.667969%)" offset="0.503906"/><stop stop-opacity="1" stop-color="rgb(1.831055%, 29.3396%, 34.092712%)" offset="0.507812"/><stop stop-opacity="1" stop-color="rgb(1.799011%, 28.843689%, 33.517456%)" offset="0.511719"/><stop stop-opacity="1" stop-color="rgb(1.768494%, 28.347778%, 32.9422%)" offset="0.515625"/><stop stop-opacity="1" stop-color="rgb(1.737976%, 27.851868%, 32.365417%)" offset="0.519531"/><stop stop-opacity="1" stop-color="rgb(1.707458%, 27.357483%, 31.790161%)" offset="0.523438"/><stop stop-opacity="1" stop-color="rgb(1.675415%, 26.861572%, 31.214905%)" offset="0.527344"/><stop stop-opacity="1" stop-color="rgb(1.644897%, 26.367188%, 30.639648%)" offset="0.53125"/><stop stop-opacity="1" stop-color="rgb(1.61438%, 25.871277%, 30.062866%)" offset="0.535156"/><stop stop-opacity="1" stop-color="rgb(1.583862%, 25.376892%, 29.48761%)" offset="0.539062"/><stop stop-opacity="1" stop-color="rgb(1.551819%, 24.880981%, 28.912354%)" offset="0.542969"/><stop stop-opacity="1" stop-color="rgb(1.521301%, 24.386597%, 28.337097%)" offset="0.546875"/><stop stop-opacity="1" stop-color="rgb(1.490784%, 23.890686%, 27.761841%)" offset="0.550781"/><stop stop-opacity="1" stop-color="rgb(1.460266%, 23.394775%, 27.186584%)" offset="0.554688"/><stop stop-opacity="1" stop-color="rgb(1.428223%, 22.898865%, 26.609802%)" offset="0.558594"/><stop stop-opacity="1" stop-color="rgb(1.397705%, 22.40448%, 26.034546%)" offset="0.5625"/><stop stop-opacity="1" stop-color="rgb(1.365662%, 21.908569%, 25.45929%)" offset="0.566406"/><stop stop-opacity="1" stop-color="rgb(1.335144%, 21.414185%, 24.884033%)" offset="0.570312"/><stop stop-opacity="1" stop-color="rgb(1.304626%, 20.918274%, 24.307251%)" offset="0.574219"/><stop stop-opacity="1" stop-color="rgb(1.274109%, 20.423889%, 23.731995%)" offset="0.578125"/><stop stop-opacity="1" stop-color="rgb(1.242065%, 19.927979%, 23.156738%)" offset="0.582031"/><stop stop-opacity="1" stop-color="rgb(1.211548%, 19.432068%, 22.581482%)" offset="0.585937"/><stop stop-opacity="1" stop-color="rgb(1.18103%, 18.936157%, 22.0047%)" offset="0.589844"/><stop stop-opacity="1" stop-color="rgb(1.150513%, 18.441772%, 21.429443%)" offset="0.59375"/><stop stop-opacity="1" stop-color="rgb(1.118469%, 17.945862%, 20.854187%)" offset="0.597656"/><stop stop-opacity="1" stop-color="rgb(1.087952%, 17.451477%, 20.278931%)" offset="0.601562"/><stop stop-opacity="1" stop-color="rgb(1.057434%, 16.955566%, 19.703674%)" offset="0.605469"/><stop stop-opacity="1" stop-color="rgb(1.026917%, 16.461182%, 19.128418%)" offset="0.609375"/><stop stop-opacity="1" stop-color="rgb(0.994873%, 15.965271%, 18.551636%)" offset="0.613281"/><stop stop-opacity="1" stop-color="rgb(0.964355%, 15.470886%, 17.976379%)" offset="0.617187"/><stop stop-opacity="1" stop-color="rgb(0.933838%, 14.974976%, 17.401123%)" offset="0.621094"/><stop stop-opacity="1" stop-color="rgb(0.90332%, 14.479065%, 16.825867%)" offset="0.625"/><stop stop-opacity="1" stop-color="rgb(0.871277%, 13.983154%, 16.249084%)" offset="0.628906"/><stop stop-opacity="1" stop-color="rgb(0.840759%, 13.48877%, 15.673828%)" offset="0.632812"/><stop stop-opacity="1" stop-color="rgb(0.810242%, 12.992859%, 15.098572%)" offset="0.636719"/><stop stop-opacity="1" stop-color="rgb(0.779724%, 12.498474%, 14.523315%)" offset="0.640625"/><stop stop-opacity="1" stop-color="rgb(0.747681%, 12.002563%, 13.948059%)" offset="0.644531"/><stop stop-opacity="1" stop-color="rgb(0.717163%, 11.508179%, 13.372803%)" offset="0.648438"/><stop stop-opacity="1" stop-color="rgb(0.686646%, 11.012268%, 12.796021%)" offset="0.652344"/><stop stop-opacity="1" stop-color="rgb(0.656128%, 10.516357%, 12.220764%)" offset="0.65625"/><stop stop-opacity="1" stop-color="rgb(0.624084%, 10.020447%, 11.645508%)" offset="0.660156"/><stop stop-opacity="1" stop-color="rgb(0.593567%, 9.526062%, 11.070251%)" offset="0.664062"/><stop stop-opacity="1" stop-color="rgb(0.563049%, 9.030151%, 10.493469%)" offset="0.667969"/><stop stop-opacity="1" stop-color="rgb(0.532532%, 8.535767%, 9.918213%)" offset="0.671875"/><stop stop-opacity="1" stop-color="rgb(0.500488%, 8.039856%, 9.342957%)" offset="0.675781"/><stop stop-opacity="1" stop-color="rgb(0.469971%, 7.545471%, 8.7677%)" offset="0.679688"/><stop stop-opacity="1" stop-color="rgb(0.439453%, 7.049561%, 8.192444%)" offset="0.683594"/><stop stop-opacity="1" stop-color="rgb(0.408936%, 6.555176%, 7.617188%)" offset="0.6875"/><stop stop-opacity="1" stop-color="rgb(0.376892%, 6.059265%, 7.040405%)" offset="0.691406"/><stop stop-opacity="1" stop-color="rgb(0.346375%, 5.563354%, 6.465149%)" offset="0.695312"/><stop stop-opacity="1" stop-color="rgb(0.315857%, 5.067444%, 5.889893%)" offset="0.699219"/><stop stop-opacity="1" stop-color="rgb(0.285339%, 4.573059%, 5.314636%)" offset="0.703125"/><stop stop-opacity="1" stop-color="rgb(0.253296%, 4.077148%, 4.737854%)" offset="0.707031"/><stop stop-opacity="1" stop-color="rgb(0.222778%, 3.582764%, 4.162598%)" offset="0.710938"/><stop stop-opacity="1" stop-color="rgb(0.192261%, 3.086853%, 3.587341%)" offset="0.714844"/><stop stop-opacity="1" stop-color="rgb(0.161743%, 2.592468%, 3.012085%)" offset="0.71875"/><stop stop-opacity="1" stop-color="rgb(0.1297%, 2.096558%, 2.436829%)" offset="0.722656"/><stop stop-opacity="1" stop-color="rgb(0.0991821%, 1.600647%, 1.861572%)" offset="0.726562"/><stop stop-opacity="1" stop-color="rgb(0.0686646%, 1.104736%, 1.28479%)" offset="0.730469"/><stop stop-opacity="1" stop-color="rgb(0.038147%, 0.610352%, 0.709534%)" offset="0.734375"/><stop stop-opacity="1" stop-color="rgb(0.0183105%, 0.305176%, 0.354004%)" offset="0.738281"/><stop stop-opacity="1" stop-color="rgb(0%, 0%, 0%)" offset="0.742187"/><stop stop-opacity="1" stop-color="rgb(0%, 0%, 0%)" offset="0.75"/><stop stop-opacity="1" stop-color="rgb(0%, 0%, 0%)" offset="0.968432"/><stop stop-opacity="1" stop-color="rgb(0%, 0%, 0%)" offset="1"/></linearGradient></defs><g clip-path="url(#c34aa6d07e)"><g clip-path="url(#8eba47c5bf)"><path fill="url(#798388a49d)" d="M -275.167969 587.25 L 222.75 -275.167969 L 1085.167969 222.75 L 587.25 1085.167969 Z M -275.167969 587.25 " fill-rule="nonzero"/></g></g><g fill="#ffffff" fill-opacity="1"><g transform="translate(181.157104, 600.386526)"><g><path d="M 333.261719 -100.976562 C 308.128906 -190.683594 222.320312 -240.089844 162.515625 -189.382812 L 290.792969 -323.730469 C 326.761719 -361 360.566406 -368.800781 375.300781 -369.667969 L 381.800781 -369.667969 L 381.800781 -373.566406 L 279.523438 -373.566406 L 279.523438 -369.667969 L 284.292969 -369.667969 C 295.558594 -368.800781 322.429688 -361.867188 285.59375 -323.730469 L 162.515625 -195.449219 L 162.515625 -323.730469 C 162.515625 -352.332031 182.015625 -369.667969 213.652344 -369.667969 L 213.652344 -373.566406 L 21.667969 -373.566406 L 21.667969 -369.667969 C 53.304688 -369.667969 72.804688 -352.332031 72.804688 -323.730469 L 72.804688 -49.835938 C 72.804688 -21.234375 53.304688 -3.898438 21.667969 -3.898438 L 21.667969 0 L 213.652344 0 L 213.652344 -3.898438 C 182.015625 -3.898438 162.515625 -21.234375 162.515625 -49.835938 L 162.515625 -185.050781 C 198.917969 -197.617188 220.152344 -160.78125 240.523438 -100.976562 C 263.925781 -31.203125 306.828125 0 339.332031 0 L 426.003906 0 L 426.003906 -3.898438 C 387 -3.898438 352.765625 -30.769531 333.261719 -100.976562 Z M 333.261719 -100.976562 "/></g></g></g></svg>